<svg xmlns="http://www.w3.org/2000/svg" width="34" height="33" viewBox="0 0 34 33"><defs><style>.a{fill:#021733;}</style></defs><g transform="translate(-17.2 0)"><path class="a" d="M26.89,21.728H47.05A3.971,3.971,0,0,0,51.2,17.984V10.253a.079.079,0,0,0-.008-.041c0-.014-.008-.034-.008-.047s-.008-.027-.008-.041a.4.4,0,0,1-.015-.047c-.008-.014-.008-.027-.015-.041s-.008-.027-.015-.041a.314.314,0,0,1-.023-.047.147.147,0,0,0-.023-.034l-.023-.041c-.008-.014-.015-.02-.023-.034s-.023-.027-.03-.041a.122.122,0,0,0-.03-.034c-.008-.014-.023-.02-.03-.034s-.023-.02-.03-.034-.023-.02-.03-.027l-.038-.034c-.015-.007-.023-.02-.038-.027s-.03-.02-.045-.027-.023-.014-.038-.02a.16.16,0,0,1-.045-.027l-.045-.02-.045-.02-.045-.02c-.015-.007-.03-.007-.045-.014a.151.151,0,0,0-.053-.014.357.357,0,0,1-.038-.007.182.182,0,0,0-.06-.007c-.008,0-.015-.007-.03-.007L24.777,6.244V3.03a.377.377,0,0,0-.008-.095.047.047,0,0,0-.008-.027c0-.02-.008-.041-.008-.061s-.008-.034-.015-.054-.007-.02-.007-.034L24.71,2.7c0-.007-.008-.02-.008-.027a.2.2,0,0,0-.03-.054c-.008-.007-.008-.02-.015-.027a.142.142,0,0,0-.03-.041c-.008-.014-.015-.02-.023-.034s-.015-.02-.023-.034-.023-.027-.03-.041l-.023-.02-.045-.041-.023-.02a.32.32,0,0,0-.053-.041c-.008-.007-.023-.014-.03-.02s-.03-.02-.045-.034-.045-.027-.06-.034-.015-.007-.023-.014c-.03-.014-.068-.027-.1-.041L18.612.073a1.057,1.057,0,0,0-1.331.488.884.884,0,0,0,.541,1.2L22.74,3.633V23.7a3.9,3.9,0,0,0,3.617,3.71,3.432,3.432,0,0,0-.587,1.9,3.917,3.917,0,0,0,4.1,3.7,3.922,3.922,0,0,0,4.1-3.7,3.361,3.361,0,0,0-.564-1.865H42.53a3.378,3.378,0,0,0-.564,1.865,4.12,4.12,0,0,0,8.2,0,3.922,3.922,0,0,0-4.1-3.7H26.89A2.027,2.027,0,0,1,24.77,23.7V21.213A4.552,4.552,0,0,0,26.89,21.728ZM31.943,29.3a2.079,2.079,0,1,1-2.068-1.865A1.978,1.978,0,0,1,31.943,29.3Zm16.2,0a2.079,2.079,0,1,1-2.068-1.865A1.978,1.978,0,0,1,48.14,29.3Zm-1.09-9.4H26.89a2.027,2.027,0,0,1-2.12-1.913v-9.9l24.4,3.032v6.857A2.028,2.028,0,0,1,47.05,19.9Z" transform="translate(0 0)"/></g></svg>