<svg xmlns="http://www.w3.org/2000/svg" width="135" height="43.769" viewBox="0 0 135 43.769"><defs><style>.a,.c{fill:#021733;}.b{fill:none;stroke:#000e1f;stroke-width:2px;}.c{font-size:30px;font-family:Poppins-Medium, Poppins;font-weight:500;}</style></defs><g transform="translate(-0.334 6.769)"><g transform="translate(0.334 -5.753)"><path class="a" d="M832.937,444.542v-8.5h2.824l-9.775-8.409-9.823,8.409h2.99v8.5H804.319l6.622-29.209H841.2l6.449,29.209Z" transform="translate(-804.319 -405.406)"/><rect class="a" width="3.478" height="3.478" transform="translate(17.536 29.571)"/><rect class="a" width="3.478" height="3.478" transform="translate(22.319 29.571)"/><rect class="a" width="3.478" height="3.478" transform="translate(22.319 34.354)"/><rect class="a" width="3.478" height="3.478" transform="translate(17.536 34.354)"/><path class="b" d="M58,8.318S57.91,5.885,59.924,2s5.428-3.6,5.428-3.6S68.767-1.889,70.78,2s1.926,6.32,1.926,6.32" transform="translate(-43.654 1.609)"/></g><text class="c" transform="translate(47.334 26)"><tspan x="0" y="0">Homs</tspan></text></g></svg>