<svg xmlns="http://www.w3.org/2000/svg" width="64" height="60" viewBox="0 0 64 60"><defs><style>.a{fill:#f2f2f2;}</style></defs><g transform="translate(-0.008)"><path class="a" d="M59.721,14.941A30.947,30.947,0,0,0,48.074,4.023,32.92,32.92,0,0,0,32.011,0,32.921,32.921,0,0,0,15.947,4.023,30.935,30.935,0,0,0,4.3,14.941,27.945,27.945,0,0,0,.008,30,27.8,27.8,0,0,0,5.3,46.524,31.464,31.464,0,0,0,19.176,57.5a24.306,24.306,0,0,1,.541-6.914l4.126-16.329A9.87,9.87,0,0,1,22.8,29.492a8.565,8.565,0,0,1,1.792-5.547,5.431,5.431,0,0,1,4.375-2.227,4.031,4.031,0,0,1,3.208,1.289A4.751,4.751,0,0,1,33.3,26.25a11.428,11.428,0,0,1-.48,2.949q-.479,1.739-1.25,4.024t-1.1,3.652a4.229,4.229,0,0,0,.958,4.082,5.25,5.25,0,0,0,4.084,1.7q4.458,0,7.313-4.648a21.18,21.18,0,0,0,2.854-11.29,10.724,10.724,0,0,0-3.522-8.32q-3.521-3.2-9.813-3.2-7.041,0-11.4,4.238A13.653,13.653,0,0,0,16.59,29.571a8.539,8.539,0,0,0,2.125,5.9,1.7,1.7,0,0,1,.458,1.68q-.083.235-.333,1.171c-.166.625-.278,1.029-.333,1.211q-.333,1.25-1.584.781a9.176,9.176,0,0,1-4.875-4.336,14.811,14.811,0,0,1-1.667-7.148,16.071,16.071,0,0,1,.9-5.234,17.477,17.477,0,0,1,2.791-5.059,21.265,21.265,0,0,1,4.542-4.317,21.9,21.9,0,0,1,6.438-3.008,28.4,28.4,0,0,1,8.167-1.133A22.587,22.587,0,0,1,43.841,12.54a18.3,18.3,0,0,1,7.188,6.367,15.325,15.325,0,0,1,2.479,8.36,24.858,24.858,0,0,1-2.166,10.547,17.536,17.536,0,0,1-6.126,7.363,15.694,15.694,0,0,1-9,2.676,10.415,10.415,0,0,1-4.75-1.113A6.785,6.785,0,0,1,28.424,44.1q-1.875,6.913-2.251,8.242a23.382,23.382,0,0,1-3.25,6.406A33.492,33.492,0,0,0,32.007,60,32.917,32.917,0,0,0,48.07,55.976,30.93,30.93,0,0,0,59.716,45.059,27.953,27.953,0,0,0,64.008,30,27.941,27.941,0,0,0,59.721,14.941Z"/></g></svg>