<svg xmlns="http://www.w3.org/2000/svg" width="29.824" height="29.554" viewBox="0 0 29.824 29.554"><defs><style>.a{fill:#021733;}</style></defs><g transform="matrix(0.995, -0.105, 0.105, 0.995, -1.038, 2.149)"><path class="a" d="M28.63,27.008l-5.738-5.452a13.029,13.029,0,1,0-1.286,1.286l5.738,5.452a.92.92,0,0,0,.643.271.892.892,0,0,0,.643-.271A.915.915,0,0,0,28.63,27.008ZM1.871,13.019a11.191,11.191,0,1,1,11.191,11.2A11.2,11.2,0,0,1,1.871,13.019Z" transform="matrix(0.998, 0.07, -0.07, 0.998, 1.102, -1.031)"/></g></svg>